<svg xmlns="http://www.w3.org/2000/svg" xml:space="preserve" width="32" height="32" style="enable-background:new 0 0 32 32"><path d="M0 0h32v8H0z" style="fill:#fff"/><path d="M0 8h32v8H0z" style="fill:#fff2e9"/><path d="M0 16h32v8H0z" style="fill:#fedec6"/><path d="M0 24h32v8H0z" style="fill:#fdcca6"/><path d="m24.1 10-3.5 3.5-2 1.1.2.5 1.8-.6H26v2.9h-5.4l-1.8-.6-.2.5 2 1.1 3.5 3.5-2.1 2.2-3.5-3.5-1.1-2-.5.2.6 1.8V26h-2.9v-5.4l.6-1.8-.5-.2-1.1 2-3.6 3.5L7.9 22l3.5-3.5 2-1.1-.2-.5-1.8.6H6v-2.9h5.4l1.8.6.2-.5-2-1.1L7.9 10 10 7.9l3.5 3.5 1.1 2 .5-.2-.6-1.8V6h2.9v5.4l-.6 1.8.5.2 1.1-2L22 7.9l2.1 2.1z" style="fill:#666766"/></svg>